<svg version="1.1" id="Layer_1" xmlns="http://www.w3.org/2000/svg" xmlns:xlink="http://www.w3.org/1999/xlink" x="0px" y="0px"
	 width="100%" viewBox="0 0 496 496" enable-background="new 0 0 496 496" xml:space="preserve">
<path fill="#000000" opacity="1.000000" stroke="none" 
	d="
M280.999939,211.361237 
	C238.678757,211.360748 196.857574,211.381805 155.036591,211.297882 
	C152.767044,211.293335 149.414505,212.661163 148.493591,209.427795 
	C147.457153,205.788788 147.386383,201.838837 148.837173,198.156784 
	C149.310684,196.955032 150.715530,196.891022 151.889175,196.855057 
	C153.887100,196.793823 155.887222,196.785950 157.886414,196.785828 
	C253.191986,196.780365 348.497559,196.770798 443.803101,196.818298 
	C446.176178,196.819489 449.591095,195.593124 450.679871,198.197449 
	C452.209534,201.856400 451.633179,206.063568 450.895874,209.998520 
	C450.645203,211.336243 449.103394,211.274017 447.950592,211.309494 
	C446.119263,211.365845 444.285736,211.361496 442.453125,211.361542 
	C388.802063,211.362839 335.151001,211.361496 280.999939,211.361237 
z"/>
<path fill="#000000" opacity="1.000000" stroke="none" 
	d="
M56.000000,275.033447 
	C79.644897,275.038788 102.789864,275.020081 125.934578,275.088654 
	C128.119034,275.095123 131.351593,274.181702 131.986618,277.058807 
	C132.792175,280.708374 133.041122,284.690002 131.603745,288.334564 
	C131.079987,289.662598 129.254761,289.320709 127.953789,289.321350 
	C89.490013,289.340271 51.026192,289.319733 12.562501,289.381042 
	C9.430182,289.386017 7.855776,288.287933 7.977438,285.065857 
	C8.033938,283.569550 8.078798,282.062683 7.969807,280.572205 
	C7.673270,276.517059 9.447965,274.953918 13.540138,274.995514 
	C27.525440,275.137817 41.513187,275.039825 56.000000,275.033447 
z"/>
<path fill="#000000" opacity="1.000000" stroke="none" 
	d="
M296.050476,229.845947 
	C300.259521,235.889999 304.256073,241.629089 308.287842,247.343307 
	C308.549805,247.714554 309.082642,247.894669 310.276184,248.683929 
	C314.692474,242.283188 319.260376,236.012497 323.420715,229.482162 
	C325.437042,226.317215 327.977325,225.530670 331.401703,225.707123 
	C334.029175,225.842529 335.381165,226.731552 335.368713,229.556992 
	C335.309967,242.881348 335.267456,256.206726 335.383942,269.530273 
	C335.416626,273.270081 333.215759,273.488861 330.510162,273.326111 
	C327.707001,273.157471 324.031891,274.363770 324.012390,269.500519 
	C323.985077,262.682098 324.005493,255.863449 324.005493,248.250458 
	C320.160950,251.071823 318.597900,254.709732 316.405640,257.795929 
	C312.117859,263.832092 307.162567,263.905334 302.976593,257.880829 
	C300.745422,254.669647 298.500458,251.468018 295.268555,248.594147 
	C295.268555,255.018692 295.045471,261.453613 295.344055,267.864258 
	C295.556519,272.426910 293.599640,273.448090 289.428589,273.457428 
	C285.196228,273.466919 283.473755,272.318817 283.575073,267.806946 
	C283.833099,256.320099 283.556122,244.821915 283.745728,233.332443 
	C283.787262,230.815567 282.044037,227.067245 285.962952,226.063248 
	C289.710693,225.103119 293.709534,225.113602 296.050476,229.845947 
z"/>
<path fill="#000000" opacity="1.000000" stroke="none" 
	d="
M172.775055,249.176819 
	C173.102951,245.910492 175.250778,245.938522 177.259445,245.916840 
	C183.249695,245.852142 189.244781,245.981934 195.229950,245.787643 
	C199.245850,245.657272 200.530243,247.388702 200.165146,251.223785 
	C199.038895,263.054108 192.224228,271.135040 180.906143,273.800201 
	C170.620895,276.222137 159.090530,271.585999 153.981827,262.974426 
	C148.602768,253.907135 149.659454,240.841110 156.403687,233.027908 
	C162.991394,225.396103 175.273148,222.766968 185.276764,226.916473 
	C191.835831,229.637192 196.850952,233.783127 198.591354,241.963760 
	C193.095520,241.991501 188.384354,243.595322 183.929810,238.983688 
	C179.212021,234.099487 170.484955,234.770584 165.818420,239.460266 
	C161.144577,244.157288 160.868240,254.131851 165.269241,259.282043 
	C169.517456,264.253418 178.057907,265.171234 183.454193,261.220276 
	C185.224442,259.924164 186.640732,258.390320 186.892746,255.296478 
	C183.876953,255.296478 181.096863,255.097000 178.356522,255.342148 
	C173.996292,255.732208 172.075134,254.031998 172.775055,249.176819 
z"/>
<path fill="#000000" opacity="1.000000" stroke="none" 
	d="
M73.939568,223.891541 
	C74.919685,221.554962 75.757141,219.562057 76.496140,217.533310 
	C79.622375,208.950989 81.365395,208.073242 91.186150,210.744125 
	C88.968597,217.665512 86.658852,224.550369 83.123260,230.866364 
	C81.484856,233.793213 81.613121,235.818832 83.212288,238.558533 
	C86.604248,244.369629 89.638123,250.389740 92.921951,256.516571 
	C82.087051,258.837860 80.564461,258.162476 75.923355,249.539047 
	C74.504639,246.902985 73.013161,244.301895 71.704361,241.612122 
	C70.532928,239.204636 68.895226,238.080017 66.133698,238.617493 
	C63.199139,239.188660 63.183483,241.334427 63.174828,243.562424 
	C63.162552,246.723587 63.033554,249.890091 63.173069,253.044647 
	C63.379753,257.717834 60.227722,257.365570 57.140705,257.368286 
	C54.179775,257.370880 51.502705,257.558868 51.557350,253.172424 
	C51.721081,240.030365 51.697193,226.884445 51.587048,213.741364 
	C51.549385,209.247238 54.552036,209.793793 57.364918,209.722672 
	C60.333389,209.647614 63.247337,209.571106 63.170845,213.831390 
	C63.123066,216.492371 63.069881,219.161514 63.224327,221.815048 
	C63.333958,223.698578 62.336884,226.204834 64.586304,227.232498 
	C66.923080,228.300064 69.511620,227.886581 71.700424,226.362213 
	C72.495918,225.808197 73.074219,224.942322 73.939568,223.891541 
z"/>
<path fill="#000000" opacity="1.000000" stroke="none" 
	d="
M420.486572,251.804596 
	C413.662689,247.870239 410.919891,243.110519 411.798492,237.149307 
	C412.709320,230.969482 416.970306,227.179901 424.426361,225.487930 
	C430.249054,224.166595 435.727356,224.967728 440.822144,227.841949 
	C445.536713,230.501663 447.831665,234.722687 447.675171,240.867950 
	C443.073639,241.049454 438.447906,243.403351 435.383179,237.272263 
	C434.151672,234.808624 430.973145,234.380615 428.232483,234.787827 
	C426.084656,235.106934 423.866913,235.816223 423.433044,238.446579 
	C422.983948,241.169296 424.936798,242.432663 427.003143,243.181168 
	C430.750854,244.538681 434.667603,245.435608 438.397675,246.834381 
	C445.843109,249.626373 449.560455,254.691223 448.996735,260.851685 
	C448.365936,267.745117 444.322815,271.908508 436.434631,273.787567 
	C427.225128,275.981415 417.440887,272.922485 413.656006,266.481232 
	C412.173279,263.957886 410.257416,261.045685 412.812500,258.305176 
	C414.715698,256.263855 421.393799,258.037292 423.132935,260.767975 
	C425.447876,264.402802 428.873291,265.102936 432.712738,264.395660 
	C434.701385,264.029327 436.574829,263.108978 436.786987,260.635590 
	C436.990051,258.267517 435.628418,256.741516 433.654053,256.040649 
	C429.430237,254.541214 425.109558,253.314667 420.486572,251.804596 
z"/>
<path fill="#000000" opacity="1.000000" stroke="none" 
	d="
M251.361084,239.766830 
	C255.634537,250.928970 260.467407,261.475250 263.979919,272.599762 
	C255.154388,274.377350 254.307571,274.060730 249.927750,267.333069 
	C249.245331,266.284851 248.515930,265.442993 247.218506,265.434479 
	C242.556656,265.403900 237.894363,265.396545 233.232574,265.429626 
	C231.905533,265.439056 231.250443,266.411560 230.618973,267.456970 
	C226.729492,273.895935 224.632523,274.662628 217.217270,272.440826 
	C216.611069,270.856232 217.502762,269.500732 218.032776,268.159882 
	C223.049774,255.467316 228.291122,242.860367 233.097076,230.089233 
	C234.637482,225.995804 237.357300,225.776260 240.888321,225.671478 
	C244.383423,225.567764 246.532394,226.624054 247.612213,230.101578 
	C248.596329,233.270920 250.015060,236.305313 251.361084,239.766830 
M240.845749,242.926819 
	C236.966934,246.090622 236.848328,250.762222 235.280914,255.116806 
	C238.968811,256.179871 241.970932,256.233948 245.303101,255.162796 
	C244.629364,250.836258 242.658127,247.192032 240.845749,242.926819 
z"/>
<path fill="#000000" opacity="1.000000" stroke="none" 
	d="
M373.670135,244.552094 
	C377.760254,244.616409 381.431702,244.805466 385.082947,244.612396 
	C388.881592,244.411560 389.356873,246.463943 389.395874,249.574127 
	C389.437531,252.897522 388.447083,254.578232 384.862518,254.344421 
	C382.044556,254.160599 379.196411,254.453094 376.376190,254.287201 
	C373.008331,254.089111 371.110809,254.818756 371.176086,258.868683 
	C371.236206,262.596924 372.504211,263.915771 376.173889,263.698151 
	C380.154968,263.462067 384.164795,263.760712 388.156769,263.644165 
	C391.773712,263.538574 392.110474,265.813904 392.152100,268.546051 
	C392.194458,271.323029 391.828308,273.437256 388.187103,273.373688 
	C380.031647,273.231384 371.871399,273.261292 363.714539,273.351532 
	C360.641541,273.385498 359.645325,271.934509 359.656921,269.081329 
	C359.709778,256.095520 359.738678,243.108917 359.641266,230.123611 
	C359.616974,226.887863 360.926147,225.677139 364.085846,225.718018 
	C371.742920,225.817078 379.403564,225.825317 387.060059,225.702148 
	C390.832184,225.641464 391.308105,227.774078 391.374573,230.830551 
	C391.443451,233.999191 390.730530,236.011063 387.068176,235.917572 
	C383.408112,235.824142 379.742554,235.863403 376.081238,235.936447 
	C374.305084,235.971878 371.917664,235.609283 371.568054,237.972092 
	C371.238892,240.196640 370.011444,243.041885 373.670135,244.552094 
z"/>
</svg>